<?xml version="1.0" encoding="utf-8"?>
<!-- Generator: Adobe Illustrator 16.0.0, SVG Export Plug-In . SVG Version: 6.00 Build 0)  -->
<!DOCTYPE svg PUBLIC "-//W3C//DTD SVG 1.1//EN" "http://www.w3.org/Graphics/SVG/1.1/DTD/svg11.dtd">
<svg version="1.1" id="Layer_1" xmlns="http://www.w3.org/2000/svg" xmlns:xlink="http://www.w3.org/1999/xlink" x="0px" y="0px"
	 width="99.213px" height="99.213px" viewBox="0 0 99.213 99.213" enable-background="new 0 0 99.213 99.213" xml:space="preserve">
<path d="M61.261,15.912H10.226c-1.524,0-2.758,1.269-2.758,2.834v31.182c0,1.565,1.234,2.834,2.758,2.834h20.26l-0.328,1.91
	l-1.126,6.566l-0.022,0.001c0,0-4.281,1.661-5.029,2.167l-0.634,0.996c-0.262,0.178,0.004,0.479,0.42,0.479h11.977h11.978
	c0.414,0,0.682-0.301,0.42-0.479l-0.635-0.996c-0.748-0.506-5.029-2.167-5.029-2.167l-0.021-0.001l-1.126-6.566H41.33l-0.329-1.91
	h20.26c1.524,0,2.76-1.269,2.76-2.834V18.746C64.021,17.181,62.785,15.912,61.261,15.912z"/>
<path d="M92.964,52.578v-3.667h-3.427V18.479c0-1.424-1.111-2.566-2.5-2.566H72.767c-1.385,0-2.499,1.145-2.499,2.566v40.699v4.031
	v0.003c0,1.423,1.115,2.566,2.499,2.566h14.271c1.389,0,2.5-1.144,2.5-2.566v-0.003v-4.031v-0.735h3.427v-3.667h-3.427v-2.197
	H92.964z"/>
<polygon points="88.439,83.301 9.44,83.301 20.773,70.302 77.106,70.302 "/>
</svg>
