<?xml version="1.0" encoding="utf-8"?>
<!-- Generator: Adobe Illustrator 16.0.0, SVG Export Plug-In . SVG Version: 6.00 Build 0)  -->
<!DOCTYPE svg PUBLIC "-//W3C//DTD SVG 1.1//EN" "http://www.w3.org/Graphics/SVG/1.1/DTD/svg11.dtd">
<svg version="1.1" id="Layer_1" xmlns="http://www.w3.org/2000/svg" xmlns:xlink="http://www.w3.org/1999/xlink" x="0px" y="0px"
	 width="792px" height="792px" viewBox="-75.5 0 792 792" enable-background="new -75.5 0 792 792" xml:space="preserve">
<g>
	<path fill="#2D2D2D" d="M381.25,730.182h39.29l227.771-227.77l-39.29-39.291L381.25,690.891V730.182L381.25,730.182z
		 M426.804,760.504h-60.786c-8.399,0-15.231-6.832-15.231-15.232v-60.787c0-3.986,1.565-7.828,4.413-10.818L598.2,430.664
		c5.979-5.979,15.518-5.979,21.497,0l60.785,60.785c5.979,5.982,5.979,15.518,0,21.496L437.48,756.092
		C434.634,758.939,430.79,760.504,426.804,760.504z"/>
</g>
<g>
	<path fill="#2D2D2D" d="M609.021,578.287c-3.846,0-7.83-1.424-10.82-4.412l-60.785-60.787c-5.979-5.979-5.979-15.516,0-21.496
		c5.979-5.979,15.517-5.979,21.496,0l60.786,60.787c5.98,5.979,5.98,15.518,0,21.496
		C616.706,576.863,612.864,578.287,609.021,578.287z"/>
</g>
<g>
	<path fill="#2D2D2D" d="M290.142,699.717H-28.735c-8.4,0-15.232-6.832-15.232-15.232v-455.54c0-3.986,1.566-7.83,4.414-10.819
		L142.662,35.91c2.848-2.848,6.691-4.414,10.819-4.414h334.11c8.398,0,15.231,6.834,15.231,15.232v425.218
		c0,8.398-6.833,15.232-15.231,15.232c-8.399,0-15.232-6.834-15.232-15.232V61.961H159.743l-173.389,173.39v434.043h303.645
		c8.398,0,15.232,6.834,15.232,15.234C305.231,693.025,298.541,699.717,290.142,699.717z"/>
</g>
<g>
	<path fill="#2D2D2D" d="M153.48,244.177H-28.735c-8.4,0-15.232-6.833-15.232-15.232c0-8.399,6.832-15.089,15.232-15.089h166.983
		V46.872c0-8.4,6.833-15.232,15.232-15.232c8.398,0,15.232,6.832,15.232,15.232v182.216
		C168.57,237.486,161.879,244.177,153.48,244.177z"/>
</g>
<g>
	<path fill="#2D2D2D" d="M183.802,365.75H31.907c-8.397,0-15.231-6.834-15.231-15.231c0-8.398,6.832-15.232,15.231-15.232h151.895
		c8.398,0,15.232,6.834,15.232,15.232C199.035,358.916,192.201,365.75,183.802,365.75z"/>
</g>
<g>
	<path fill="#2D2D2D" d="M366.018,487.18H31.907c-8.397,0-15.231-6.834-15.231-15.232s6.832-15.232,15.231-15.232h334.11
		c8.399,0,15.232,6.834,15.232,15.232S374.417,487.18,366.018,487.18z"/>
</g>
<g>
	<path fill="#2D2D2D" d="M153.48,608.609H31.907c-8.397,0-15.231-6.834-15.231-15.232s6.832-15.23,15.231-15.23h121.43
		c8.399,0,15.232,6.832,15.232,15.23C168.57,601.918,161.879,608.609,153.48,608.609z"/>
</g>
<path fill="#2D2D2D" d="M405.581,216.217c-4.806,0-9.417,0.825-13.712,2.325c-5.717-32.194-33.824-56.647-67.66-56.647
	c-26.454,0-49.405,14.953-60.898,36.861c-6.864-3.261-14.539-5.09-22.643-5.09c-29.192,0-52.857,23.665-52.857,52.857
	c0,29.193,23.665,52.857,52.857,52.857h164.913c22.965,0,41.581-18.617,41.581-41.581
	C447.162,234.833,428.546,216.217,405.581,216.217z"/>
</svg>
