<?xml version="1.0" encoding="utf-8"?>
<!-- Generator: Adobe Illustrator 16.0.0, SVG Export Plug-In . SVG Version: 6.00 Build 0)  -->
<!DOCTYPE svg PUBLIC "-//W3C//DTD SVG 1.1//EN" "http://www.w3.org/Graphics/SVG/1.1/DTD/svg11.dtd">
<svg version="1.1" id="Layer_1" xmlns="http://www.w3.org/2000/svg" xmlns:xlink="http://www.w3.org/1999/xlink" x="0px" y="0px"
	 width="99.213px" height="99.212px" viewBox="0 0 99.213 99.212" enable-background="new 0 0 99.213 99.212" xml:space="preserve">
<g id="_x31__4_">
	<g>
		<g>
			<g>
				<g>
					<polygon fill="#2D2927" points="66.92,28.329 66.92,28.775 66.92,32.461 71.786,36.927 73.336,35.173 75.852,32.329 
						75.852,27.796 					"/>
					<path fill="#2D2927" d="M79.207,20.597c-0.016-0.312-0.184-0.837-0.59-0.536c-0.186,0.137-0.094,0.472-0.265,0.583
						c-0.414,0.272-0.454-0.341-0.481-0.612c-0.104-1.031,0.358-2.021,0.234-3.033c-0.17-1.411-1.489-2.369-2.729-2.847
						c-1.231-0.474-2.86-0.469-4.124-0.028c-1.264-0.441-2.893-0.446-4.124,0.028c-1.24,0.478-2.559,1.436-2.729,2.847
						c-0.124,1.012,0.339,2.002,0.235,3.033c-0.028,0.271-0.068,0.884-0.482,0.612c-0.17-0.112-0.079-0.447-0.265-0.583
						c-0.406-0.302-0.573,0.224-0.589,0.536c-0.058,1.112,0.104,2.326,0.596,3.333c0.286,0.584,0.684,0.751,1.082,1.173
						c0.442,0.468,0.368,1.387,0.533,1.971c0.112,0.397,0.281,0.759,0.512,1.076c0.489,0.675,1.341,0.99,1.9,1.603
						c0.524,0.576,1.01,1.149,1.731,1.521c0.435,0.223,1.041,0.227,1.6,0.199c0.559,0.027,1.166,0.023,1.6-0.199
						c0.723-0.372,1.207-0.944,1.732-1.521c0.56-0.613,1.411-0.928,1.9-1.603c0.229-0.317,0.399-0.678,0.511-1.076
						c0.165-0.584,0.092-1.503,0.533-1.971c0.399-0.422,0.798-0.589,1.082-1.173C79.103,22.922,79.264,21.708,79.207,20.597z"/>
					<path fill="#2D2927" d="M63.834,19.202c0.169,0.582,0.194,1.017,0.172,1.603c-0.002,0.078-0.008,0.197-0.005,0.325h0.741
						c0.008-0.154,0.001-0.302-0.005-0.394c-0.021-0.426-0.005-0.764,0.017-1.189c0.029-0.57-0.041-1.155,0.016-1.722
						c0.15-1.49,1.423-2.54,2.837-2.651c1.04-0.081,2.081,0.132,3.122,0.135c1.286,0.003,1.868-0.617,2.883-1.249
						c0.271-0.169,0.109-0.191,0.392-0.118c0.186,0.047,0.422,0.298,0.581,0.395c0.963,0.59,2.694,1.176,2.973,2.421
						c0.22,0.979,0.174,1.979,0.148,2.974c-0.004,0.14-0.125,0.898-0.094,1.398h0.578c0.187-0.601,0.434-1.417,0.496-1.732
						c0.243-1.265,0.186-1.82,0.244-2.358c0.21-1.908,0.315-3.733-0.86-5.333c-1.259-1.711-3.123-2.712-4.119-2.585
						c-0.057,0.007-0.729,0.067-0.645,0.145c-0.354-0.32-0.977-0.342-1.415-0.446c-2.338-0.559-5.293,0.895-6.991,2.447
						c-1.793,1.639-1.528,3.747-1.325,5.772C63.646,17.745,63.638,18.526,63.834,19.202z"/>
				</g>
				<g>
					<path fill="#2D2927" d="M66.92,40.283c-0.031-0.328,4.279-4.857,4.279-4.857h0.552l4.101,4.574L71.57,51.453L66.92,40.283z"/>
					<path fill="#2D2927" d="M73.623,45.086l-1.458-6.619c-0.046-0.21-0.016-0.429,0.085-0.619l0.554-1.042
						c0.024-0.063,0.011-0.134-0.038-0.181c-0.213-0.212-0.425-0.424-0.639-0.636c-0.145-0.144-0.32-0.279-0.403-0.468
						c-0.061-0.135-0.226-0.438-0.418-0.309c-0.169,0.112-0.225,0.288-0.334,0.438c-0.108,0.148-0.278,0.276-0.408,0.406
						c-0.191,0.189-0.381,0.378-0.572,0.568c-0.048,0.046-0.063,0.118-0.036,0.181l0.553,1.042c0.102,0.19,0.13,0.409,0.086,0.619
						l-1.459,6.619c-0.009,0.033-0.006,0.068,0.006,0.1l2.021,5.188c0.036,0.096,0.136,0.122,0.217,0.091
						c0.081,0.031,0.181,0.005,0.217-0.091l2.021-5.188C73.629,45.154,73.631,45.119,73.623,45.086z"/>
					<g>
						<path fill="#2D2927" d="M71.122,49.124l-3.34-11.093l-1.405-4.665c0,0-0.052,0.016-0.15,0.047
							c-0.352,0.104-1.289,0.386-2.479,0.744c-3.192,0.969-8.172,2.479-8.306,2.569c-0.135,0.092-1.798,3.486-2.825,5.596v8.387
							c0.214,0.837,0.494,1.504,0.836,1.848c4.284,4.308,15.608,4.117,17.751,4.384L71.122,49.124z"/>
						<path fill="#2D2927" d="M90.027,42.086c-1.03-2.119-2.579-5.273-2.71-5.361c-0.136-0.09-5.116-1.6-8.309-2.569
							c-1.184-0.357-2.124-0.638-2.476-0.744c-0.102-0.031-0.153-0.047-0.153-0.047l-1.96,6.315l-3.102,9.996v0.097l-0.196-0.649
							l0.082,7.816c0.04,0.004,0.079,0.01,0.114,0.015c0.957-0.072,15.33-0.015,17.995-4.398c0.269-0.439,0.512-1.204,0.714-2.126
							V42.086z"/>
					</g>
					<path fill="#2D2927" d="M75.92,31.064l-4.422,3.988c-0.067,0.062-0.17,0.062-0.238,0l-4.421-3.988l-0.988,2.895l1.91,6.324
						l3.474-4.886c0.07-0.098,0.219-0.098,0.289,0l3.475,4.886l1.91-6.324L75.92,31.064z"/>
					<path fill="#2D2927" d="M77.105,37.447l2.321,0.98L71.318,53.78l-7.984-15.353l2.318-0.98l-2.668-1.311
						c0.131-0.406,0.42-1.232,0.764-1.98c1.189-0.357,2.127-0.64,2.479-0.744l1.556,4.618l1.234,3.668l2.231,7.332l2.491-7.332
						l0.681-2.018l2.113-6.268c0.352,0.105,1.292,0.386,2.476,0.744c0.347,0.748,0.632,1.574,0.763,1.98L77.105,37.447z"/>
				</g>
			</g>
			<path fill="#2D2927" d="M80.702,18.829c0.216-2.599-0.002-6.004-1.981-8.555c-1.445-1.86-4.458-3.354-7.486-3.354
				c-2.967,0-6.041,1.494-7.485,3.354c-1.98,2.551-2.199,5.956-1.981,8.555c-1.13,0.586-1.429,2.058-1.211,3.664
				c0.258,1.89,1.132,2.393,2.841,2.255l-0.953-6.146c-0.002,0.001-0.006,0.001-0.008,0.002c-0.181-2.471,0.053-5.627,1.849-7.942
				c1.317-1.695,4.207-2.992,6.949-3.087c3.066,0.095,5.634,1.392,6.949,3.087c1.798,2.315,2.03,5.471,1.849,7.942
				c-0.003-0.001-0.005-0.001-0.007-0.002l-0.954,6.146c0.014,0.001,0.026,0.001,0.039,0.002L76.151,28.2
				c-0.172-0.154-0.443-0.154-0.613,0.006l-1.518,1.419c-0.176,0.166-0.18,0.439-0.01,0.61l0.312,0.309
				c0.171,0.171,0.455,0.175,0.632,0.01l1.518-1.42c0.121-0.113,0.158-0.279,0.115-0.427l3.395-3.96
				c1.118-0.113,1.725-0.735,1.932-2.255C82.132,20.886,81.831,19.415,80.702,18.829z"/>
		</g>
	</g>
	<g>
		<g>
			<g>
				<polygon fill="#050606" points="29.558,52.343 29.558,52.972 29.558,58.172 36.42,64.471 38.609,61.998 42.156,57.985 
					42.156,51.591 				"/>
				<path fill="#050606" d="M46.888,41.438c-0.021-0.441-0.257-1.181-0.831-0.756c-0.26,0.192-0.133,0.665-0.374,0.824
					c-0.582,0.383-0.639-0.482-0.679-0.863c-0.146-1.454,0.507-2.851,0.333-4.279c-0.243-1.99-2.102-3.34-3.851-4.015
					c-1.737-0.668-3.215-4.056-4.998-3.434c-1.783-0.622-5.702-0.156-7.438,0.514c-1.75,0.675-2.806,4.946-3.049,6.936
					c-0.174,1.428,0.48,2.825,0.333,4.279c-0.039,0.381-0.095,1.246-0.679,0.863c-0.241-0.159-0.115-0.632-0.373-0.824
					c-0.574-0.425-0.81,0.315-0.833,0.756c-0.08,1.568,0.146,3.28,0.84,4.701c0.404,0.824,0.966,1.059,1.527,1.655
					c0.623,0.66,0.52,1.955,0.752,2.779c0.157,0.56,0.396,1.071,0.72,1.517c0.691,0.952,1.891,1.396,2.682,2.263
					c0.74,0.813,1.424,1.619,2.443,2.144c0.613,0.315,1.469,0.321,2.255,0.282c0.788,0.039,1.644,0.033,2.257-0.282
					c1.017-0.524,1.703-1.331,2.442-2.144c0.791-0.866,1.99-1.311,2.681-2.263c0.324-0.446,0.564-0.957,0.721-1.517
					c0.232-0.824,0.128-2.119,0.751-2.779c0.563-0.596,1.125-0.831,1.527-1.655C46.744,44.718,46.968,43.005,46.888,41.438z"/>
				<path fill="#050606" d="M25.206,39.469c0.238,0.822,0.273,1.434,0.243,2.262c-0.004,0.109-0.012,0.277-0.008,0.458h1.046
					c0.011-0.219,0-0.426-0.006-0.554c-0.031-0.601-0.01-1.079,0.022-1.679c0.042-0.803-0.058-1.629,0.022-2.428
					c0.177-1.767,1.665-3.46,2.455-5.001c0.503-0.983,1.427-1.963,2.52-1.8c0.644,0.094,1.155,0.567,1.666,0.972
					c1.347,1.071,2.969,1.794,4.666,2.083c1.957,0.333,6.163-0.306,6.732,2.24c0.308,1.381,0.245,2.792,0.208,4.195
					c-0.006,0.198-0.175,1.268-0.133,1.972h0.818c0.262-0.847,0.61-1.999,0.696-2.444c0.345-1.783,0.264-2.567,0.348-3.326
					c0.295-2.689,0.443-5.265-1.214-7.521c-2.046-2.784-5.204-4.514-8.683-4.515c-2.919-0.001-7.104,1.027-8.753,3.628
					c-3.123,0.731-3.253,5.988-3.009,8.409C24.939,37.417,24.93,38.518,25.206,39.469z"/>
			</g>
			<g>
				<path fill="#050606" d="M29.558,69.205c-0.043-0.463,6.037-6.853,6.037-6.853h0.779l5.783,6.453l-6.04,16.155L29.558,69.205z"/>
				<path fill="#050606" d="M39.014,75.977l-2.058-9.332c-0.065-0.297-0.022-0.607,0.121-0.874l0.78-1.47
					c0.035-0.087,0.014-0.188-0.054-0.257c-0.3-0.298-0.601-0.596-0.901-0.896c-0.204-0.203-0.451-0.393-0.569-0.658
					c-0.085-0.191-0.317-0.619-0.59-0.438c-0.236,0.158-0.316,0.407-0.469,0.618c-0.154,0.21-0.393,0.39-0.578,0.574
					c-0.269,0.267-0.537,0.532-0.805,0.799c-0.068,0.068-0.089,0.17-0.053,0.257l0.78,1.47c0.143,0.267,0.185,0.577,0.12,0.874
					l-2.056,9.332c-0.011,0.048-0.009,0.096,0.01,0.142l2.848,7.318c0.053,0.134,0.193,0.171,0.308,0.126
					c0.113,0.045,0.254,0.008,0.306-0.126l2.849-7.318C39.021,76.073,39.025,76.025,39.014,75.977z"/>
				<g>
					<path fill="#050606" d="M35.486,81.673l-4.713-15.645l-1.98-6.582c0,0-0.074,0.022-0.212,0.066
						c-0.496,0.145-1.82,0.545-3.497,1.049c-4.504,1.366-11.527,3.497-11.716,3.623c-0.19,0.13-2.536,4.917-3.983,7.896V83.91
						c0.302,1.18,0.694,2.121,1.179,2.606c6.042,6.075,22.015,5.809,25.036,6.183L35.486,81.673z"/>
					<path fill="#050606" d="M62.15,71.749c-1.453-2.989-3.638-7.438-3.821-7.563c-0.192-0.126-7.215-2.257-11.719-3.623
						c-1.669-0.504-2.997-0.9-3.493-1.049c-0.142-0.044-0.216-0.066-0.216-0.066l-2.765,8.909l-4.374,14.097v0.139l-0.275-0.918
						L35.6,92.699c0.059,0.007,0.114,0.013,0.162,0.02c1.351-0.1,21.624-0.02,25.383-6.202c0.379-0.62,0.723-1.699,1.006-3.001
						V71.749z"/>
				</g>
				<path fill="#050606" d="M42.252,56.201l-6.236,5.626c-0.096,0.086-0.241,0.086-0.335,0l-6.237-5.626l-1.394,4.083l2.694,8.921
					l4.899-6.892c0.1-0.141,0.308-0.141,0.409,0l4.898,6.892l2.695-8.921L42.252,56.201z"/>
				<path fill="#050606" d="M43.924,65.205l3.274,1.381L35.762,88.242L24.499,66.585l3.271-1.381l-3.762-1.85
					c0.185-0.573,0.592-1.738,1.077-2.793c1.677-0.504,3.001-0.904,3.497-1.049l2.192,6.516l1.744,5.172l3.146,10.34l3.515-10.34
					l0.958-2.845l2.981-8.843c0.496,0.149,1.824,0.545,3.493,1.049c0.487,1.055,0.892,2.22,1.076,2.793L43.924,65.205z"/>
			</g>
		</g>
		<path fill="#050606" d="M48.998,38.943c0.306-3.667-0.002-8.469-2.795-12.066c-2.038-2.625-6.286-4.731-10.559-4.731
			c-4.184,0-8.52,2.106-10.558,4.731c-2.792,3.598-3.101,8.399-2.793,12.066c-1.595,0.828-2.018,2.903-1.709,5.169
			c0.364,2.666,1.596,3.374,4.008,3.179l-1.345-8.669c-0.004,0.001-0.007,0.002-0.011,0.002c-0.256-3.484,0.073-7.936,2.608-11.199
			c1.857-2.393,5.932-4.221,9.801-4.356c4.326,0.135,7.946,1.963,9.802,4.356c2.536,3.264,2.863,7.715,2.608,11.199
			c-0.003,0-0.007-0.001-0.011-0.002l-1.344,8.669c0.018,0.001,0.036,0.002,0.054,0.003l-4.174,4.867
			c-0.243-0.216-0.625-0.216-0.866,0.008l-2.139,2.002c-0.249,0.233-0.255,0.62-0.014,0.861L40,55.468
			c0.242,0.24,0.642,0.246,0.89,0.014l2.139-2.003c0.172-0.161,0.225-0.394,0.165-0.603l4.788-5.584
			c1.578-0.162,2.433-1.039,2.724-3.181C51.014,41.846,50.592,39.771,48.998,38.943z"/>
	</g>
</g>
</svg>
