<?xml version="1.0" encoding="utf-8"?>
<!-- Generator: Adobe Illustrator 16.0.0, SVG Export Plug-In . SVG Version: 6.00 Build 0)  -->
<!DOCTYPE svg PUBLIC "-//W3C//DTD SVG 1.1//EN" "http://www.w3.org/Graphics/SVG/1.1/DTD/svg11.dtd">
<svg version="1.1" id="Layer_1" xmlns="http://www.w3.org/2000/svg" xmlns:xlink="http://www.w3.org/1999/xlink" x="0px" y="0px"
	 width="99.21px" height="99.21px" viewBox="0 0 99.21 99.21" enable-background="new 0 0 99.21 99.21" xml:space="preserve">
<g>
	<path fill="#FFFFFF" d="M23.882,79.571c6.918,5.947,15.904,9.554,25.722,9.554c9.818,0,18.804-3.606,25.723-9.554L49.604,53.848
		L23.882,79.571z"/>
	<path fill="#FFFFFF" d="M75.327,19.639c-6.919-5.947-15.904-9.554-25.723-9.554c-9.818,0-18.804,3.607-25.722,9.554l25.722,25.724
		L75.327,19.639z"/>
	<path fill="#FFFFFF" d="M19.639,23.882c-5.948,6.918-9.555,15.905-9.555,25.723s3.607,18.805,9.555,25.724l25.723-25.724
		L19.639,23.882z"/>
	<path fill="#FFFFFF" d="M79.569,23.881L53.846,49.605l25.723,25.724c5.948-6.919,9.556-15.905,9.556-25.724
		S85.517,30.8,79.569,23.881z"/>
	<path d="M49.604,4.085c-25.1,0-45.52,20.42-45.52,45.52s20.42,45.52,45.52,45.52s45.521-20.42,45.521-45.52
		S74.704,4.085,49.604,4.085z M49.604,89.125c-9.817,0-18.803-3.606-25.722-9.554l25.722-25.723l25.723,25.723
		C68.408,85.518,59.422,89.125,49.604,89.125z M10.084,49.605c0-9.818,3.607-18.805,9.555-25.723l25.723,25.723L19.639,75.329
		C13.691,68.41,10.084,59.423,10.084,49.605z M49.604,10.085c9.818,0,18.804,3.607,25.723,9.554L49.604,45.363L23.882,19.639
		C30.8,13.692,39.786,10.085,49.604,10.085z M53.846,49.605l25.723-25.724c5.948,6.919,9.556,15.905,9.556,25.724
		s-3.607,18.805-9.556,25.724L53.846,49.605z"/>
</g>
</svg>
