<?xml version="1.0" encoding="utf-8"?>
<!-- Generator: Adobe Illustrator 16.0.0, SVG Export Plug-In . SVG Version: 6.00 Build 0)  -->
<!DOCTYPE svg PUBLIC "-//W3C//DTD SVG 1.1//EN" "http://www.w3.org/Graphics/SVG/1.1/DTD/svg11.dtd">
<svg version="1.1" id="katman_1" xmlns="http://www.w3.org/2000/svg" xmlns:xlink="http://www.w3.org/1999/xlink" x="0px" y="0px"
	 width="50px" height="50px" viewBox="0 0 50 50" enable-background="new 0 0 50 50" xml:space="preserve">
<path d="M39.895,23.041c-0.7-7.3-6.801-13.1-14.2-13.4v-1c0-0.4-0.301-0.8-0.801-0.8h-0.199c-0.4,0-0.801,0.3-0.801,0.8v0.9
	c-0.399,0-0.699,0.1-1.1,0.1c-0.3,0.1-0.699,0.1-1,0.2c-0.3,0.1-0.6,0.1-0.9,0.2c-4.5,1.3-8.199,4.6-9.799,9
	c-0.101,0.2-0.101,0.3-0.201,0.5c-0.1,0.2-0.1,0.3-0.199,0.5c-0.301,1-0.5,2-0.6,3c0,0.2,0,0.3,0,0.5c0.1,0.3,0.299,0.6,0.6,0.8
	c0.4,0.2,0.8,0.2,1.199,0l0.101-0.1c1.5-1.101,3.7-1,5.101,0.2c0.5,0.399,1.1,0.399,1.6,0c1.6-1.301,4-1.301,5.5,0.1l0.1,0.1v11.801
	c0,0.5-0.1,1-0.199,1.399c-0.201,0.601-0.5,1.101-0.9,1.5c-0.5,0.5-1.1,0.8-1.7,1c-0.2,0.101-0.5,0.101-0.8,0.101
	c-1.9,0-3.4-1.4-3.6-3.301c0-0.1,0-0.1,0-0.199c-0.101-0.4-0.5-0.7-0.9-0.7c-0.1,0-0.2,0-0.301,0.1c-0.299,0.101-0.5,0.4-0.5,0.7
	c0,3.2,3.201,5.7,6.701,5c1.6-0.3,2.899-1.4,3.6-2.7c0.3-0.5,0.5-1,0.6-1.6c0.101-0.3,0.101-0.601,0.101-0.9v-12.6
	c1.5-1.101,3.699-1.101,5.199,0.2c0.5,0.399,1.101,0.399,1.601,0c1.399-1.2,3.6-1.301,5.1-0.2c0.101,0,0.101,0.1,0.2,0.1
	c0.3,0.2,0.8,0.101,1.1-0.1C39.994,24.041,39.895,23.041,39.895,23.041z"/>
</svg>
